<svg width="15" height="15" viewBox="0 0 15 15" fill="none" xmlns="http://www.w3.org/2000/svg">
<path d="M13.75 8.125V5.625C13.75 2.5 12.5 1.25 9.375 1.25H5.625C2.5 1.25 1.25 2.5 1.25 5.625V9.375C1.25 12.5 2.5 13.75 5.625 13.75H8.125" stroke="#bec940" stroke-width="1.5" stroke-linecap="round" stroke-linejoin="round"/>
<path d="M4.5813 9.05626L6.0688 7.125C6.2813 6.85 6.67505 6.8 6.95005 7.0125L8.09381 7.9125C8.36881 8.125 8.76255 8.07501 8.97505 7.80626L10.4188 5.94375" stroke="#bec940" stroke-width="1.5" stroke-linecap="round" stroke-linejoin="round"/>
<path d="M12.175 9.8875L12.35 10.2437C12.4375 10.4187 12.6563 10.5813 12.85 10.6188L13.0875 10.6562C13.8 10.775 13.9688 11.3 13.4563 11.8187L13.2375 12.0375C13.0938 12.1875 13.0125 12.475 13.0563 12.675L13.0875 12.8063C13.2813 13.6688 12.825 14 12.075 13.55L11.9125 13.4562C11.7188 13.3437 11.4063 13.3437 11.2125 13.4562L11.05 13.55C10.2938 14.0062 9.83751 13.6688 10.0375 12.8063L10.0687 12.675C10.1125 12.475 10.0313 12.1875 9.88751 12.0375L9.66876 11.8187C9.15626 11.3 9.32501 10.775 10.0375 10.6562L10.275 10.6188C10.4625 10.5875 10.6875 10.4187 10.775 10.2437L10.95 9.8875C11.2875 9.20625 11.8375 9.20625 12.175 9.8875Z" stroke="#bec940" stroke-width="1.5" stroke-linecap="round" stroke-linejoin="round"/>
</svg>
