<svg width="20" height="20" viewBox="0 0 20 20" fill="none" xmlns="http://www.w3.org/2000/svg">
<path d="M10.0001 18.3334C14.6025 18.3334 18.3334 14.6024 18.3334 10C18.3334 5.39765 14.6025 1.66669 10.0001 1.66669C5.39771 1.66669 1.66675 5.39765 1.66675 10C1.66675 14.6024 5.39771 18.3334 10.0001 18.3334Z" stroke="#6C69FF" stroke-width="1.5" stroke-miterlimit="10" stroke-linecap="round" stroke-linejoin="round"/>
<path d="M8.2417 4.85834V6.525" stroke="#6C69FF" stroke-width="1.5" stroke-miterlimit="10" stroke-linecap="round" stroke-linejoin="round"/>
<path d="M11.7583 4.85834V6.525" stroke="#6C69FF" stroke-width="1.5" stroke-miterlimit="10" stroke-linecap="round" stroke-linejoin="round"/>
<path d="M6.27515 8.45001H13.7251" stroke="#6C69FF" stroke-width="1.5" stroke-miterlimit="10" stroke-linecap="round" stroke-linejoin="round"/>
<path d="M11.2501 14.725H8.75008C6.66675 14.725 5.41675 13.225 5.41675 11.3917V8.89168C5.41675 7.05835 6.66675 5.55835 8.75008 5.55835H11.2501C13.3334 5.55835 14.5834 7.05835 14.5834 8.89168V11.3917C14.5834 13.225 13.3334 14.725 11.2501 14.725Z" stroke="#6C69FF" stroke-width="1.5" stroke-miterlimit="10" stroke-linecap="round" stroke-linejoin="round"/>
</svg>
